 <svg  version="1.0" xmlns="http://www.w3.org/2000/svg"  width="450.000000pt" height="450.000000pt" viewBox="0 0 450.000000 450.000000"  preserveAspectRatio="xMidYMid meet">  <g transform="translate(0.000000,450.000000) scale(0.100000,-0.100000)" fill="#00ff4c" stroke="none"> <path d="M2065 3495 c-264 -42 -497 -160 -691 -347 -266 -257 -395 -581 -380 -953 12 -313 131 -593 349 -817 169 -174 369 -289 616 -356 88 -23 113 -26 291 -26 178 0 203 3 290 26 136 37 246 81 340 138 414 249 646 669 627 1135 -13 320 -128 591 -347 819 -185 192 -410 318 -665 371 -110 23 -318 28 -430 10z m371 -130 c232 -37 439 -147 614 -324 172 -173 271 -360 315 -593 19 -102 19 -291 0 -399 -48 -275 -210 -532 -450 -714 -86 -66 -264 -150 -380 -182 -92 -25 -115 -27 -285 -27 -170 0 -193 2 -285 27 -335 91 -643 359 -765 667 -58 146 -81 264 -81 424 0 138 15 234 52 350 174 531 714 861 1265 771z"/> <path d="M1860 2952 c-35 -35 -40 -80 -36 -347 1 -104 3 -378 4 -608 l2 -419 29 -29 29 -29 362 0 362 0 29 29 29 29 0 672 0 672 -29 29 -29 29 -362 0 -362 0 -28 -28z m530 -52 c0 -6 -53 -10 -140 -10 -87 0 -140 4 -140 10 0 6 53 10 140 10 87 0 140 -4 140 -10z m220 -620 l0 -550 -360 0 -360 0 0 550 0 550 360 0 360 0 0 -550z m-310 -610 c26 -26 25 -60 0 -88 -41 -43 -120 -13 -120 45 0 32 34 63 70 63 17 0 39 -9 50 -20z"/> <path d="M2177 2524 c-126 -125 -225 -230 -220 -234 10 -10 477 443 467 453 -4 4 -10 7 -13 7 -3 -1 -109 -102 -234 -226z"/> <path d="M2226 2431 c-163 -163 -246 -253 -241 -261 5 -8 90 70 256 236 222 222 268 274 241 274 -4 0 -119 -112 -256 -249z"/> </g> </svg> 