<?xml version="1.0" standalone="no"?>
<!DOCTYPE svg PUBLIC "-//W3C//DTD SVG 20010904//EN"
 "http://www.w3.org/TR/2001/REC-SVG-20010904/DTD/svg10.dtd">
<svg version="1.0" xmlns="http://www.w3.org/2000/svg"
 width="300.000000pt" height="69.000000pt" viewBox="0 0 300.000000 69.000000"
 preserveAspectRatio="xMidYMid meet">
<metadata>
Created by potrace 1.10, written by Peter Selinger 2001-2011
</metadata>
<g transform="translate(0.000000,69.000000) scale(0.100000,-0.100000)"
fill="#000000" stroke="none">
<path d="M1477 633 c-11 -10 -8 -61 3 -68 6 -4 10 10 10 34 0 42 -2 46 -13 34z"/>
<path d="M1382 613 c24 -49 32 -63 40 -63 4 0 8 3 8 6 0 12 -35 64 -43 64 -5
0 -7 -3 -5 -7z"/>
<path d="M1556 596 c-9 -15 -16 -32 -14 -38 2 -6 12 1 22 16 9 15 16 32 14 38
-2 6 -12 -1 -22 -16z"/>
<path d="M1320 517 c0 -11 -17 -16 -71 -19 -63 -3 -74 -7 -95 -31 -13 -16 -24
-37 -24 -48 0 -14 -7 -19 -28 -19 -15 0 -33 -5 -40 -12 -9 -9 -12 -9 -12 3 0
12 -2 12 -10 -1 -9 -13 -11 -13 -20 0 -8 12 -11 13 -19 1 -6 -10 -10 -10 -16
-1 -6 9 -9 9 -15 0 -10 -16 -133 -30 -202 -23 -77 8 -160 -10 -260 -56 -100
-46 -157 -61 -236 -61 -80 0 -147 22 -216 70 l-57 40 3 -31 c7 -65 192 -139
313 -124 69 9 166 40 239 77 59 31 66 32 236 39 127 5 177 4 183 -5 6 -8 10
-7 14 3 5 11 7 11 14 0 8 -12 11 -11 19 1 9 13 11 13 20 0 9 -13 10 -13 10 0
0 12 2 12 9 2 4 -7 21 -16 37 -21 19 -5 30 -15 32 -29 2 -12 17 -33 33 -47 25
-21 41 -25 90 -25 46 0 59 -3 59 -15 0 -10 10 -15 30 -15 28 0 30 2 30 40 l0
40 71 0 c62 0 70 2 67 18 -3 14 -16 18 -71 20 l-67 3 0 54 0 54 73 3 c56 2 72
6 72 18 0 12 -16 16 -73 18 l-73 3 3 42 c3 39 1 42 -24 45 -19 2 -28 -1 -28
-11z"/>
<path d="M1597 523 c-9 -8 -9 -316 -1 -337 8 -20 50 -21 58 -1 4 11 21 15 64
15 49 0 64 4 85 24 14 13 29 36 33 50 4 19 13 26 30 26 14 0 27 7 31 16 5 13
7 13 14 2 7 -11 11 -10 19 2 8 12 11 13 19 1 7 -11 9 -11 14 0 5 12 7 12 15 0
7 -9 12 -10 16 -2 9 14 60 14 218 -1 158 -14 210 -6 368 59 110 46 119 48 210
48 72 -1 109 -6 153 -22 l57 -21 0 23 c0 27 -41 46 -138 65 -93 19 -154 8
-293 -50 -108 -46 -135 -53 -210 -57 -101 -6 -347 13 -365 27 -8 8 -14 7 -17
-2 -4 -10 -7 -10 -15 1 -8 11 -10 11 -15 0 -4 -12 -7 -11 -16 1 -10 13 -12 13
-21 0 -6 -10 -10 -11 -10 -2 0 7 -13 12 -30 12 -23 0 -31 5 -36 25 -3 14 -20
36 -36 50 -24 20 -40 25 -88 25 -42 0 -59 4 -64 15 -5 15 -37 21 -49 8z"/>
<path d="M1399 113 c-7 -16 -15 -31 -17 -35 -2 -5 0 -8 5 -8 8 0 43 52 43 64
0 16 -18 3 -31 -21z"/>
<path d="M1540 130 c0 -8 9 -26 20 -40 13 -17 20 -20 20 -10 0 8 -9 26 -20 40
-13 17 -20 20 -20 10z"/>
<path d="M1470 96 c0 -19 5 -38 10 -41 6 -4 10 10 10 34 0 23 -4 41 -10 41 -5
0 -10 -15 -10 -34z"/>
</g>
</svg>
